# xmcd CD database file
#
# Track frame offsets:
#	150
#	27787
#	49760
#	73750
#	105172
#
# Disc length: 1976 seconds
#
# Revision: 0
# Processed by: cddbd v1.5.2PL0 Copyright (c) Steve Scherf et al.
# Submitted via: CDex 1.70beta2
#
DISCID=3607b605
DTITLE=ジャッキー・マクリーン - ブルーノート・ベスト・ジャズ・コレクション 18
DYEAR=2012
DGENRE=Jazz
TTITLE0=スウィート・ラヴ・オブ・マイン
TTITLE1=ブルー・ロンド
TTITLE2=ホワッツ・ニュー
TTITLE3=アポイントメント・イン・ガーナ
TTITLE4=ブルースニク
EXTD=YEAR: 2012
EXTT0=
EXTT1=
EXTT2=
EXTT3=
EXTT4=
PLAYORDER=
